.
..............................Site Info...........................

 -   http://www.scenetime.com  *_*    

Scenetime .Always on time . friendly online private torrent community ..

     We care to share . Join us on  http://www.scenetime.com 

    Be the first to get new release at  http://www.scenetime.com

        Seed back for speed


...................................NFO:................................................._________________ ________ _______________  _______   __
___  ____/__  __ ___  __ ___  ____/__  / / /___  | / /
__  /_    _  / / /__  /_/ /__  /_    _  / / / __   |/ / 
_  __/    / /_/ / _  _, _/ _  __/    / /_/ /  _  /|  /  
/_/       ____/  /_/ |_|  /_/       ____/   /_/ |_/   
                                                        
________ _____________ _____________ _______ __  /_________
___  __ __  ___/_  _ __  ___/_  _ __  __ _  __/__  ___/
__  /_/ /_  /    /  __/_(__  ) /  __/_  / / // /_  _(__  ) 
_  .___/ /_/     ___/ /____/  ___/ /_/ /_/ __/  /____/  
/_/  

You're Nobody 'til Somebody Kills You (2012)
 
http://www.imdb.com/title/tt0983250/

General
Complete name                            : Youre.Nobody.Til.Somebody.Kills.You.2012.DVDRip.XviD-F0RFUN.avi
Format                                   : AVI
Format/Info                              : Audio Video Interleave
File size                                : 1.37 GiB
Duration                                 : 1h 26mn
Overall bit rate                         : 2 264 Kbps
Writing application                      : VirtualDubMod 1.5.10.3 | www.virtualdub-fr.org || (build 2550/release)
Writing library                          : VirtualDubMod build 2550/release

Video
ID                                       : 0
Format                                   : MPEG-4 Visual
Format profile                           : Advanced Simple@L5
Format settings, BVOP                    : 1
Format settings, QPel                    : No
Format settings, GMC                     : No warppoints
Format settings, Matrix                  : Default (MPEG)
Codec ID                                 : XVID
Codec ID/Hint                            : XviD
Duration                                 : 1h 26mn
Bit rate                                 : 1 807 Kbps
Width                                    : 720 pixels
Height                                   : 408 pixels
Display aspect ratio                     : 16:9
Frame rate                               : 23.976 fps
Color space                              : YUV
Chroma subsampling                       : 4:2:0
Bit depth                                : 8 bits
Scan type                                : Progressive
Compression mode                         : Lossy
Bits/(Pixel*Frame)                       : 0.257
Stream size                              : 1.09 GiB (80%)
Writing library                          : XviD 1.2.1 (UTC 2008-12-04)

Audio
ID                                       : 1
Format                                   : AC-3
Format/Info                              : Audio Coding 3
Mode extension                           : CM (complete main)
Codec ID                                 : 2000
Duration                                 : 1h 26mn
Bit rate mode                            : Constant
Bit rate                                 : 448 Kbps
Channel(s)                               : 6 channels
Channel positions                        : Front: L C R, Side: L R, LFE
Sampling rate                            : 48.0 KHz
Bit depth                                : 16 bits
Compression mode                         : Lossy
Stream size                              : 277 MiB (20%)
Alignment                                : Split accross interleaves
Interleave, duration                     : 42 ms (1.00 video frame)
Interleave, preload duration             : 500 ms